<svg id="_0125_team_presentation_3" xmlns="http://www.w3.org/2000/svg" xmlns:xlink="http://www.w3.org/1999/xlink" viewBox="0 0 500 500" data-imageid="team-presentation-3-37" imageName="Team Presentation 3" class="illustrations_image" style="width: 164px;"><defs><style>.cls-1_team-presentation-3-37{fill:url(#linear-gradient);}.cls-1_team-presentation-3-37,.cls-2_team-presentation-3-37,.cls-3_team-presentation-3-37,.cls-4_team-presentation-3-37,.cls-5_team-presentation-3-37,.cls-6_team-presentation-3-37,.cls-7_team-presentation-3-37,.cls-8_team-presentation-3-37,.cls-9_team-presentation-3-37,.cls-10_team-presentation-3-37{stroke-width:0px;}.cls-2_team-presentation-3-37{isolation:isolate;opacity:.18;}.cls-2_team-presentation-3-37,.cls-10_team-presentation-3-37{fill:#68e1fd;}.cls-3_team-presentation-3-37{fill:url(#linear-gradient-4-team-presentation-3-37);}.cls-4_team-presentation-3-37{fill:url(#linear-gradient-2-team-presentation-3-37);}.cls-5_team-presentation-3-37{fill:url(#linear-gradient-3-team-presentation-3-37);}.cls-6_team-presentation-3-37{fill:url(#linear-gradient-5-team-presentation-3-37);}.cls-7_team-presentation-3-37{fill:url(#linear-gradient-6-team-presentation-3-37);}.cls-8_team-presentation-3-37{fill:#231f20;}.cls-9_team-presentation-3-37{fill:#ffb4a3;}</style><linearGradient id="linear-gradient-team-presentation-3-37" x1="734" y1="3933.17" x2="713.08" y2="3362.04" gradientTransform="translate(-471 3866.26) scale(1 -1)" gradientUnits="userSpaceOnUse"><stop offset=".02" stop-color="#fff" stop-opacity="0"/><stop offset=".32" stop-color="#fff" stop-opacity=".39"/><stop offset=".68" stop-color="#fff" stop-opacity=".68"/><stop offset="1" stop-color="#fff"/></linearGradient><linearGradient id="linear-gradient-2-team-presentation-3-37" x1="659.07" y1="3665.59" x2="789.15" y2="3717.98" gradientTransform="translate(-503.24 3858.05) scale(1 -1)" xlink:href="#linear-gradient-team-presentation-3-37"/><linearGradient id="linear-gradient-3-team-presentation-3-37" x1="753.42" y1="3712.35" x2="829.6" y2="3734.63" gradientTransform="translate(-503.24 3858.05) scale(1 -1)" xlink:href="#linear-gradient-team-presentation-3-37"/><linearGradient id="linear-gradient-4-team-presentation-3-37" x1="731.16" y1="3650.26" x2="729.99" y2="3618.28" xlink:href="#linear-gradient-team-presentation-3-37"/><linearGradient id="linear-gradient-5-team-presentation-3-37" x1="731.16" y1="3623.97" x2="729.99" y2="3591.99" xlink:href="#linear-gradient-team-presentation-3-37"/><linearGradient id="linear-gradient-6-team-presentation-3-37" x1="731.16" y1="3597.69" x2="729.99" y2="3565.71" xlink:href="#linear-gradient-team-presentation-3-37"/></defs><path id="background_team-presentation-3-37" class="cls-2_team-presentation-3-37 targetColor" d="M327.4,468.79c27.55-1.22,55.54-2.96,81.5-12.29,25.96-9.33,50.05-27.4,60.32-53,22.99-57.28-29.75-119.93-20.57-180.98,4.89-32.66,27.42-61.96,26.16-94.97-1.39-36.87-32.87-66.54-67.11-80.38-49.27-19.91-108-14.52-152.86,14.04-37.3,23.75-63.75,61.2-98.7,88.28-42.92,33.25-99.42,51.79-128.96,97.34-28.62,44.17-36.36,166.15,14.55,199.63,33.02,21.72,92.47,20.05,130.41,22.46,51.69,3.29,103.61,2.21,155.26-.13Z" style="fill: rgb(104, 164, 253);"/><g id="graphic_data_team-presentation-3-37"><rect class="cls-8_team-presentation-3-37" x="170.69" y="314.06" width="8.36" height="108.17"/><rect class="cls-8_team-presentation-3-37" x="329.6" y="314.06" width="8.36" height="108.17"/><rect class="cls-10_team-presentation-3-37 targetColor" x="149.48" y="57.47" width="208.19" height="265.81" style="fill: rgb(104, 164, 253);"/><rect class="cls-1_team-presentation-3-37" x="149.48" y="57.47" width="208.19" height="265.81"/><path class="cls-4_team-presentation-3-37" d="M308.64,176.63c-14.18,27.48-47.96,38.26-75.44,24.08-27.48-14.18-38.26-47.96-24.08-75.44,9.6-18.61,28.79-30.31,49.74-30.31h.39v56l49.39,25.68Z"/><path class="cls-5_team-presentation-3-37" d="M314.89,150.98c.02,8.93-2.11,17.74-6.2,25.68l-49.39-25.68v-56.02c30.78.22,55.61,25.24,55.59,56.02Z"/><rect class="cls-3_team-presentation-3-37" x="191.06" y="225.27" width="137.14" height="10.28"/><rect class="cls-6_team-presentation-3-37" x="191.06" y="251.55" width="137.14" height="10.28"/><rect class="cls-7_team-presentation-3-37" x="191.06" y="277.84" width="137.14" height="10.28"/></g><g id="character_2_team-presentation-3-37"><path class="cls-8_team-presentation-3-37" d="M450.77,354.74c.81-40.64,1.6-81.46-3.57-121.76-17.85-.22-36.55-.15-54.41-.37-5.26,13.63-7.56,28.2-9.78,42.64-1.76,11.56-3.47,23.23-3.02,34.88.53,13.66,4.01,27.04,5.33,40.65,1.58,16.17.1,32.59,2.65,48.65.31,1.97.76,4.08,2.24,5.44,1.98,1.8,5,1.59,7.66,1.22.83-.03,1.65-.26,2.37-.67,1.43-.97,1.57-2.97,1.57-4.7-.14-27.2-.97-54.39-2.51-81.57-.31-2.74-.17-5.5.43-8.19.62-1.88,1.46-3.67,2.51-5.34l17.47-30.73c2.3,14.03,5.6,27.45,7.9,41.48,1.06,6.57,6.65,87.17,6.73,93.54,2.64,1.99,12.91,3.67,15.29,1.35,2.37-2.32.82-40.38,1.15-56.51Z"/><path class="cls-10_team-presentation-3-37 targetColor" d="M410.15,129.28c-2.39-.3-4.81-.23-7.18.22-4.12.98-7.45,3.95-10.37,7.01-5.48,5.75-10.22,12.15-14.12,19.06-.94,1.96-2.2,3.74-3.74,5.27-2.2,1.64-4.81,2.66-7.55,2.95-11.01,1.9-22.26.83-33.36-.18-.96-.16-1.94-.1-2.87.16-2.45.9-2.91,4.11-2.97,6.71-.19,1.34.13,2.71.88,3.84.68.65,1.53,1.11,2.45,1.32l33.13,11.21c1.95.78,4.02,1.19,6.11,1.22,3.04-.13,5.77-1.86,8.27-3.67,3.38-2.45,6.64-4.96,9.78-7.68l3.14,47.34c0,1.72.35,3.42,1,5.01,1.57,3.19,5.36,4.59,8.88,5.06,3.4.37,6.82.45,10.24.24l26.23-.86c1.19.05,2.37-.16,3.47-.61,2.91-1.43,3.15-5.39,3.14-8.63,0-15.33,3.29-30.49,4.15-45.8.55-9.86,0-19.97-3.06-29.42-1.34-4.59-3.44-8.93-6.2-12.84-2.45-3.2-6.42-3.49-10.15-4.27-6.37-1.29-12.82-2.19-19.3-2.68Z" style="fill: rgb(104, 164, 253);"/><path class="cls-10_team-presentation-3-37 targetColor" d="M431.06,147.09c-.87,6.52,3.02,12.63,6.74,18.06l10.38,15.32,7.99,11.69c.9.79,1,2.17.21,3.07-.23.27-.52.47-.85.6l-24.95,20.08c-.48.31-.85.76-1.08,1.28-.1.48-.07.98.09,1.44.65,2.53,1.77,4.91,3.3,7.03.51.88,1.35,1.53,2.34,1.8.87.04,1.72-.2,2.45-.67,9.8-5.01,19.24-10.7,28.25-17.03,3.36-2.36,6.91-5.18,7.67-9.22.25-1.94.14-3.9-.32-5.8-2.21-12.05-5.36-23.91-9.44-35.46-1.74-5.55-4.27-10.81-7.53-15.63-2.97-4.06-9.06-11.01-14.78-8.83-4.96,1.97-9.76,6.87-10.44,12.27Z" style="fill: rgb(104, 164, 253);"/><path class="cls-9_team-presentation-3-37" d="M414.22,226.16c.73,1.36,1.81,2.5,3.13,3.3l-8.87,6.47c-.24.14-.42.35-.53.61-.02.41.16.8.49,1.04,2.45,2.3,5.86,3.22,9.18,3.53,1.86.28,3.76.1,5.54-.53,2.45-1,4.13-3.27,5.67-5.42l5.92-8.22c.81-1,1.44-2.13,1.85-3.35.4-1.25.08-2.62-.83-3.57-2.78-2.45-7.07,1.31-9.71,2.45-3.8,1.57-8.39,1.24-11.85,3.68Z"/><path class="cls-9_team-presentation-3-37" d="M319.03,156.1c.09.75,1.03,1.09,1.28,1.79.18.73-.22,1.47-.92,1.74-.69.24-1.42.3-2.14.2-2.81-.17-5.63-.13-8.44.12-1.35.13-2.96.51-3.38,1.8-.17,1.13.2,2.26.99,3.08,1.13,1.82,2.6,3.39,4.34,4.63,3.67,2.24,8.05,1.28,12.05,1.22,2.67,0,5.82,1.04,6.69-2.29.67-2.56-.86-5.76-2.36-7.74-.61-.81-8.6-8.22-8.12-4.55Z"/><path class="cls-8_team-presentation-3-37" d="M377.86,420.71c-1.02.22-1.99.61-2.87,1.16-1,.53-1.38,1.76-.86,2.76.21.4.55.72.97.91,1.51.68,3.19.9,4.83.64,5.83-.43,11.61-1.41,17.25-2.93.53-.1,1.02-.32,1.44-.66.6-.8.8-1.82.55-2.79-.55-5.36-1.09-10.72-1.65-16.08-.27-2.59-.59-4.19-3.79-3.49-1.28.22-2.35,1.08-2.86,2.27-1.74,3.35-1.36,7.34-3.5,10.68-2.18,3.56-5.55,6.23-9.51,7.53Z"/><path class="cls-8_team-presentation-3-37" d="M435.74,408.77c.64,3.84-1.55,7.64-4.3,10.41-2.75,2.76-6.11,4.89-8.79,7.7-.37.31-.59.75-.64,1.22,0,.83,1.04,1.22,1.86,1.33,5.49.9,11.1.96,16.61.16,1.14-.03,2.21-.53,2.97-1.38.23-.4.39-.84.48-1.3,1.4-5.75,2.41-11.59,3.03-17.47.21-.8.02-1.66-.51-2.3-.27-.21-.58-.35-.9-.43-3.67-.96-7.57.07-10.28,2.71.14-.24.3-.46.49-.66Z"/><path class="cls-9_team-presentation-3-37" d="M400.21,111.7c-.74,1.1-1.06,2.43-.9,3.74.44,1.58,2.24,2.32,3.2,3.67s.99,3.41,1.91,4.89c1.61,2.7,5.44,2.91,8.56,2.45,1.06-.16,2.45-.21,2.91.75.15.35.21.73.18,1.11.05,3.26.24,6.55.56,9.87,0,.53.16,1.04.49,1.46.39.32.89.49,1.39.48,4.89.23,9.09-3.97,10.66-8.56,1.58-4.59,1.22-9.69,1.22-14.59,0-3.31.18-6.68-.72-9.86-.73-2.34-1.84-4.55-3.28-6.53-1.74-2.71-4.03-5.01-6.73-6.77-3.91-2.45-12.3-4.06-15.38.65-1.22,1.88-.93,4.57-1.14,6.71-.36,3.66-1.35,7.23-2.95,10.54Z"/><path class="cls-8_team-presentation-3-37" d="M402.65,94.29c2.25,1.57,5.09,1.91,7.75,2.45s5.49,1.65,6.86,4.02c1.15,1.99.99,4.43,1.08,6.73,0,.78.26,1.77,1.03,1.88,1.22.2,1.32-1.9,2.26-2.73.75-.55,1.79-.47,2.45.18.63.66.98,1.53,1,2.45.16,2.1-.58,4.17-2.03,5.7,2.82.13,3.9,5.09,6.69,4.6.88-.25,1.63-.81,2.13-1.58,2.18-2.62,3.62-5.77,4.18-9.12.55-3.38-.23-6.83-2.18-9.65-.55-.58-.93-1.29-1.1-2.07.04-.78.26-1.55.64-2.24,1.09-3.42-.79-7.07-4.21-8.16-.22-.07-.45-.13-.68-.18.54-4.45-2.63-8.48-7.08-9.02-1.11-.13-2.24-.04-3.32.29-3.39,1-5.16,2.45-8.82,1.92-2.3-.31-4.78-.5-6.74.94-4.28,3.25-4.29,10.59.09,13.59Z"/></g><g id="character_1_team-presentation-3-37"><path class="cls-8_team-presentation-3-37" d="M106.69,118.03c.46-4.54-2.54-8.83-6.3-11.43-9.68-6.71-22.97-4.3-29.68,5.37-2.36,3.4-3.68,7.41-3.79,11.55-.13,4.68,1.22,9.34.78,14-.39,3.74-1.99,7.26-4.55,10.02-3.22,3.45-7.83,5.58-10.35,9.58-2.07,3.62-2.52,7.95-1.22,11.92,1.29,3.93,3.42,7.53,6.25,10.54,1.54,1.74,3.28,3.57,3.49,5.88-.02.41.09.82.32,1.16.28.23.63.36.99.37,2.1.22,4.23.15,6.31-.21.53-.06,1.04-.23,1.49-.51.68-.58,1.16-1.37,1.36-2.25,2.93-8.61,6.91-16.83,11.86-24.46,4.72-7.26,10.28-13.95,14.94-21.25,4.66-7.3,8.43-15.43,8.99-24.08"/><path class="cls-9_team-presentation-3-37" d="M76.71,415.08c-.11,1.55.03,3.11.42,4.61.07.3.24.57.46.78.23.15.5.24.77.27,7.45,1.27,15.03,1.63,22.57,1.05.43,0,.86-.12,1.22-.34.4-.24.53-.76.29-1.16-.01-.02-.03-.04-.04-.06-.12-.12-.27-.21-.43-.27-2.96-1.36-5.98-2.58-9.05-3.67-2.53-.87-5.3-1.79-6.74-4.02-.88-1.55-1.3-3.32-1.22-5.1,0-3.13.43-6.24.55-9.35,0-.75,0-1.65-.7-2.03-.42-.18-.9-.22-1.35-.11-1.33.21-3.85.44-4.89,1.39-1.04.95-.93,3.47-1.08,4.89-.42,4.43-.7,8.78-.79,13.12Z"/><path class="cls-9_team-presentation-3-37" d="M114.74,417.55c9.45.85,18.97.61,28.37-.71,0-.99-.92-1.71-1.8-2.19-3.56-1.96-7.72-2.45-11.45-4.06-1-.36-1.9-.97-2.62-1.76-.83-1.26-1.25-2.75-1.22-4.26l-.73-11.01c.02-.54-.14-1.06-.46-1.49-.48-.38-1.1-.54-1.7-.44-1.72.09-5.54.4-6.75,1.83-1.21,1.43-.61,5.18-.71,6.9l-.93,17.18Z"/><path class="cls-10_team-presentation-3-37 targetColor" d="M114.69,192.98c.29-.15-.18-.6-.42-.38s-.17.6-.07.92l2.59,8.56c.36,1.33.85,2.62,1.46,3.85.95,1.6,2.08,3.08,3.39,4.41,6.11,6.75,11.69,13.9,17.3,21.05.32.33.5.76.51,1.22-.1.39-.33.74-.66.98l-5.66,5.18c-.57.85-1.73,1.08-2.58.5-.09-.06-.17-.12-.24-.2l-16.61-10.58c-2.47-1.4-4.7-3.19-6.6-5.3-2.99-3.98-3.83-9.17-2.26-13.89,1.62-4.66,4.83-8.61,9.06-11.15" style="fill: rgb(104, 164, 253);"/><path class="cls-9_team-presentation-3-37" d="M109.36,135.03c.31.47.56.98.73,1.52.32,1.43-.87,2.69-1.59,3.96-1.48,2.62-1.33,6.25-3.67,8.06-1.51.96-3.34,1.28-5.09.89-1.72-.39-3.47-.67-5.22-.86-.25-.02-.51.03-.73.15-.3.3-.43.73-.35,1.15l.2,6.48c-1.98.6-4.05.85-6.11.75-.69,0-1.37-.15-2.01-.43-.72-.4-1.32-.98-1.75-1.69-1.93-2.9-2.3-6.53-2.62-9.99-.5-4.19-.64-8.43-.42-12.64.07-2.49.8-4.91,2.12-7.02,1-1.41,2.45-2.45,3.52-3.79,1.3-1.53,2.24-3.39,3.78-4.67,2.1-1.48,4.6-2.28,7.17-2.3,2.3-.36,4.65.03,6.7,1.13,6.52,4.28,2.29,13.68,5.34,19.31Z"/><path class="cls-8_team-presentation-3-37" d="M97.28,115.21c.15,1.38.63,2.7,1.41,3.85.9,1.81,2.05,3.48,3.42,4.96,3.1,2.91,7.59,3.77,11.54,2.23.32-.08.6-.3.76-.59.08-.25.08-.53,0-.78-.82-3.64-1.65-7.27-2.52-10.87-.11-.59-.34-1.15-.67-1.64-.46-.5-1.04-.88-1.69-1.1-1.58-.77-3.25-1.32-4.98-1.64-3.79-.64-7.34,1.38-7.28,5.58Z"/><path class="cls-10_team-presentation-3-37 targetColor" d="M71.22,193.33l-6.79-19.57c-.97-2.79-1.96-5.72-1.52-8.65.41-2.07,1.26-4.04,2.51-5.75.98-1.74,2.5-3.12,4.33-3.93.99-.29,2.02-.44,3.06-.44,3.74-.18,7.5-.34,11.25-.5,7.88-.34,16.13.24,21.57,5.94,3.74,3.9,5.16,9.42,6.46,14.67,1.9,7.75,3.8,15.82,2.18,23.64-1.06,5.09-3.6,9.84-4.12,15-1.22,12.06,8.56,22.89,8.56,35.01.05.73-.09,1.46-.39,2.13-.48.72-1.16,1.28-1.94,1.64-10.13,5.54-22.23,5.87-33.78,5.55-8.56-.23-17.46-.87-24.69-5.41,3.85-8.41,5.88-17.54,7.89-26.57,2.54-11.56,9.32-21.6,5.43-32.79Z" style="fill: rgb(104, 164, 253);"/><path class="cls-10_team-presentation-3-37 targetColor" d="M83.41,179.69l12.23,9.94c2.44,2.12,5.07,4.01,7.86,5.65,5.75,2.88,12.17,4.1,18.58,3.55,6.36-.57,12.66-1.73,18.81-3.46.79-.11,1.52-.48,2.07-1.05.31-.46.49-1,.53-1.55.31-2.05.38-4.12.21-6.19-8.21-.08-16.39-.87-24.46-2.37-5.72-1.06-11.6-2.6-15.97-6.46-3.15-2.78-5.25-6.53-7.89-9.78-1.79-2.15-3.7-4.19-5.74-6.11-1.69-1.85-3.67-3.4-5.87-4.59-4.85-2.09-10.51-.57-13.66,3.67-1.1,1.44-1.61,3.25-1.42,5.05.5,3.09,4.28,4.06,6.26,6.11,2.68,2.68,5.5,5.22,8.46,7.59Z" style="fill: rgb(104, 164, 253);"/><path class="cls-9_team-presentation-3-37" d="M148.47,186.55c1.82-1.49,3.44-3.67,5.8-3.79.26-.04.53.03.73.2.45.44,0,1.16-.16,1.77-.04,1.01.7,1.87,1.7,1.99.97.09,1.95-.02,2.89-.31,2.13-.41,4.32-.32,6.41.28.43,2.81-1.77,5.49-4.4,6.58s-5.59.95-8.44.81l-9.45-.5c-1.9-.1-6.44-1.98-3.45-4.16.95-.68,2.68-.43,3.78-.67,1.68-.37,3.26-1.12,4.6-2.2Z"/><path class="cls-9_team-presentation-3-37" d="M136.35,243.15c1.61,2.42,4.3,3.89,7.2,3.93,2.39.23,4.8.09,7.14-.43.47-.06.9-.29,1.22-.64.56-.79-.22-1.85-.99-2.45-.83-.61-1.72-1.14-2.65-1.57-.53-.2-1.03-.48-1.47-.84-.45-.38-.61-.99-.42-1.54.65-.15,1.32,0,1.96-.21s1.22-.73,1.13-1.38-.89-.89-1.54-1.03c-3.77-.76-7.9-1.14-10.74-3.74-1.11-1.03-2.19-2.07-3.82-1.42-1.23.48-2,1.7-1.92,3.02.12,1.22,1.28,2.45,1.9,3.49.9,1.66,1.9,3.27,3,4.81Z"/><path class="cls-8_team-presentation-3-37" d="M74.7,295.09c3.89,34.91,2.92,70.19.75,105.25,3.13.51,6.3.71,9.46.6.82.04,1.63-.18,2.32-.62.74-.79,1.13-1.86,1.06-2.95l8.66-111.94c11.92,36.41,17.23,74.65,15.68,112.93,4.45.66,8.99.1,13.15-1.61,5.6-39.05-.99-78.69-7.58-117.59l-4.89-28.6c.23,1.41-24.56-.71-26.6-.9-5.55-.56-17.78-2.92-21.67,2.52-3.25,4.54.88,12.12,2.75,16.39,3.66,8.43,5.99,17.39,6.91,26.54Z"/><path class="cls-8_team-presentation-3-37" d="M90.48,413.65c.64.04,1.27.2,1.85.48,3.94,1.6,7.72,3.58,11.27,5.91.94.61,1.99,1.76,1.38,2.71-.48.52-1.18.78-1.88.7-8.05.33-16.11-.22-24.04-1.66-2.13-.4-4.81-1.22-3.67-3.85,1-1.93,2.89-3.23,5.05-3.46,1.72-.15,3.19.95,4.89.89,1.7-.06,3.33-1.69,5.15-1.71Z"/><path class="cls-8_team-presentation-3-37" d="M128.36,412.37c-1.54-.11-3.04-.53-4.41-1.22-2.52-1.25-5.29-1.91-8.1-1.93-.69-.04-1.35.24-1.8.77-.18.33-.28.7-.29,1.08l-.45,4.27c-.1.52-.07,1.06.07,1.58.42,1.16,1.83,1.55,3.04,1.76,7.62,1.3,15.34,1.9,23.08,1.81,2.35,0,5.05-.32,6.38-2.25.15-.19.23-.42.26-.66-.06-.47-.34-.88-.75-1.13-2.76-2.19-5.81-3.99-9.05-5.37-1.28-.55-2.79-1.48-4.11-.79s-1.91,2.1-3.88,2.09Z"/><path class="cls-8_team-presentation-3-37" d="M101.45,115.83c-.59,2.74-2.81,4.81-5.09,6.44-2.27,1.64-4.78,3.07-6.47,5.31-1.77,2.4-2.42,5.45-1.79,8.36-.49.45-1.31.16-1.75-.33-.37-.54-.78-1.04-1.22-1.52-1.37-1.04-3.51.35-3.74,2.05-.05,1.74.61,3.42,1.83,4.65.55.57.97,1.26,1.22,2.01.59,2.2-1.81,3.95-3.85,4.96-2.69-5.48-5-11.24-5.26-17.35-.26-6.11,1.83-12.55,6.62-16.33,3.73-2.98,21.72-8.61,19.49,1.74Z"/></g></svg>